Fly_normalized_Motion_pl07
version=1
nRows=10
nColumns=43
inDegrees=yes
endheader
time		pelvis_tilt		pelvis_list		pelvis_rotation		pelvis_tx		pelvis_ty		pelvis_tz		hip_flexion_r		hip_adduction_r		hip_rotation_r		knee_angle_r		ankle_angle_r		subtalar_angle_r		mtp_angle_r		hip_flexion_l		hip_adduction_l		hip_rotation_l		knee_angle_l		ankle_angle_l		subtalar_angle_l		mtp_angle_l		lumbar_extension		lumbar_bending		lumbar_rotation		neck_flexion		neck_lateral_bending		neck_rotation		arm_flex_r		arm_add_r		arm_rot_r		elbow_flex_r		pro_sup_r		wrist_flex_r		wrist_dev_r		hand_finger_flex_r		arm_flex_l		arm_add_l		arm_rot_l		elbow_flex_l		pro_sup_l		wrist_flex_l		wrist_dev_l		hand_finger_flex_l		
0.470000		-4.038051		-18.148896		87.589773		0.010853		1.888231		1.432160		39.928984		-7.656361		5.437733		-103.064747		-20.114532		-7.864813		8.337510		39.518905		-0.923702		-0.353085		-104.732745		-17.604477		-19.084400		13.021970		-36.204021		-4.878602		3.976722		11.702262		2.436877		-4.274449		141.446909		-5.280028		36.474850		48.284976		69.598567		-35.642571		-4.568963		47.888698		137.140319		-1.910070		21.951266		61.482598		-101.512984		-9.012742		-20.639927		-90.000210		
0.474394		-4.125628		-18.004572		87.456391		0.010620		1.888440		1.424061		40.263903		-7.655818		5.477799		-103.004990		-20.733805		-8.073278		11.671605		39.826020		-0.896345		-0.641886		-104.758430		-18.447215		-20.004812		14.137889		-36.228566		-4.998688		4.110657		11.239483		2.472289		-4.379674		141.381129		-5.612827		37.148829		48.504236		69.566737		-35.514573		-4.310774		46.916941		136.858973		-2.132973		22.171348		61.665463		-101.968317		-9.203486		-20.813715		-90.000210		
0.478788		-4.147443		-17.792610		87.382056		0.010460		1.888635		1.415984		40.516304		-7.632576		5.361961		-103.003939		-20.504719		-8.259483		12.788793		40.075929		-0.905460		-0.868163		-104.886294		-18.299292		-20.452933		14.502833		-36.398122		-5.047059		4.222781		11.103947		2.494476		-4.389625		141.311909		-5.869927		37.595025		48.691893		69.673430		-35.409101		-4.241208		46.631373		136.614524		-2.400178		22.402988		61.943579		-102.098498		-9.377452		-20.857854		-90.000210		
0.483182		-4.140156		-17.543442		87.333537		0.010269		1.888763		1.408040		40.736747		-7.589720		5.179163		-103.046628		-19.712999		-8.472737		12.848201		40.327335		-0.909315		-1.083131		-105.061817		-17.547377		-20.726741		14.495252		-36.644035		-5.061622		4.304538		11.068729		2.494958		-4.372837		141.232029		-6.087272		37.956074		48.854049		69.859408		-35.333291		-4.247251		46.652638		136.371645		-2.680594		22.640571		62.228251		-102.062911		-9.548464		-20.848490		-90.000210		
0.487576		-4.146096		-17.294607		87.288030		0.010066		1.888705		1.400195		40.969057		-7.548007		4.994241		-103.129417		-18.627469		-8.750455		12.871421		40.612653		-0.883947		-1.328446		-105.245281		-16.543100		-21.075671		14.449025		-36.897089		-5.079995		4.367250		10.967224		2.468969		-4.382221		141.129632		-6.300910		38.344571		49.005248		70.070813		-35.291273		-4.236991		46.648304		136.108300		-2.955458		22.868510		62.463534		-101.999852		-9.729019		-20.846750		-90.000210		
0.491970		-4.172833		-17.048899		87.237952		0.009758		1.888275		1.392318		41.204782		-7.540395		4.796036		-103.273734		-17.094359		-9.090591		12.717606		40.925313		-0.836495		-1.629567		-105.444954		-15.229765		-21.425513		14.248415		-37.134384		-5.097788		4.431327		10.849270		2.405757		-4.400112		140.964943		-6.570404		38.804174		49.267726		70.389593		-35.304051		-4.235231		46.604182		135.753296		-3.280497		23.091801		62.787536		-101.826729		-9.986048		-20.828235		-90.000210		
0.496364		-4.191711		-16.888503		87.193300		0.009499		1.887421		1.384561		41.649683		-7.522355		4.583285		-103.569265		-14.730060		-8.758515		5.891922		41.383115		-0.855443		-1.946484		-105.644883		-13.125944		-20.810959		8.511930		-37.264197		-5.134150		4.581073		10.703796		2.367335		-4.468888		140.590760		-6.883533		38.863913		49.735426		71.745805		-35.366994		-3.744353		46.255221		135.179973		-3.219618		22.699301		63.005750		-98.994243		-11.307795		-20.429005		-90.000210		
0.500758		-4.195149		-16.559287		87.169556		0.009466		1.886820		1.376797		41.930265		-7.497210		4.305310		-103.680238		-13.875702		-9.308826		5.844064		41.700244		-0.880726		-2.164614		-105.606888		-12.640030		-21.162560		8.446277		-37.645038		-5.145733		4.520157		10.616685		2.372292		-4.429661		140.334514		-7.144185		39.197876		50.111726		71.881660		-35.286730		-3.824950		46.302114		134.790423		-3.648781		22.923219		63.412279		-99.020240		-11.460424		-20.399834		-90.000210		
0.505152		-4.059695		-16.306593		87.298443		0.009270		1.885904		1.369180		42.355106		-7.384031		3.812429		-103.796136		-13.544616		-10.507053		4.382595		42.175430		-0.907827		-2.154163		-105.511064		-12.647108		-22.037174		7.475308		-37.927693		-4.955201		4.472048		10.476111		2.257239		-4.225948		139.892940		-7.315720		39.408164		50.501037		72.504717		-35.833609		-3.942626		46.218309		134.329682		-4.033726		23.168398		63.782902		-98.199894		-11.704551		-20.571591		-90.000210		
0.509545		-4.043775		-15.906572		87.285345		0.009198		1.885001		1.361582		42.714973		-7.334874		3.593124		-103.898968		-13.286511		-10.749367		4.278576		42.499207		-0.963595		-2.272487		-105.355340		-12.568042		-22.167231		7.400943		-38.400798		-4.951121		4.461683		10.457215		2.234129		-4.222498		139.532641		-7.569041		39.586608		50.844569		72.588653		-35.758648		-3.966772		46.297956		133.884559		-4.341028		23.321257		64.021880		-98.101195		-11.871293		-20.576440		-90.000210		
